# xmcd
#
# Track frame offsets:
#	150
#	13331
#	31890
#	51801
#	70904
#	87548
#	105155
#	121855
#	139292
#	153462
#	168248
#	181831
#	195731
#	210200
#	224496
#	242519
#	259504
#	276235
#	292565
#	313885
#	327861
#
# Disc length: 4546 seconds
#
# Revision: 1
# Processed by: cddbd v1.5.2PL0 Copyright (c) Steve Scherf et al.
# Submitted via: audiograbber 1.83.01
#
DISCID=2611c015
DTITLE=Claude Diamond - Highway Of Live Diamond Dust
DYEAR=2006
DGENRE=Country
TTITLE0=Little Copper Wire
TTITLE1=Highway Of Live
TTITLE2=Nashville Train
TTITLE3=Her Old Address
TTITLE4=Out On The Salt
TTITLE5=Someone I Need
TTITLE6=Dance With The Hurricane
TTITLE7=Talking To Strangers
TTITLE8=Spend A Little Time With Me
TTITLE9=I Waited Too Long
TTITLE10=Bonustrack Bluesy Blues
TTITLE11=Last Man On Earth
TTITLE12=Land Of Zydeco
TTITLE13=Half My Doublewide
TTITLE14=Land On The Moon
TTITLE15=I Hope Hell Freezes Over
TTITLE16=North Of Exit Ten
TTITLE17=I Drop Quarters
TTITLE18=Edge Of The World
TTITLE19=The Girl I Love
TTITLE20=The Phone Call
EXTD=
EXTT0=
EXTT1=
EXTT2=
EXTT3=
EXTT4=
EXTT5=
EXTT6=
EXTT7=
EXTT8=
EXTT9=
EXTT10=
EXTT11=
EXTT12=
EXTT13=
EXTT14=
EXTT15=
EXTT16=
EXTT17=
EXTT18=
EXTT19=
EXTT20=
PLAYORDER=
